#define logo_width 48
#define logo_height 48
static unsigned char logo_bits[] = {
   0x00, 0x00, 0x00, 0x00, 0x00, 0x00, 0x00, 0x00, 0x00, 0x00, 0x01, 0x00,
   0x00, 0x00, 0x00, 0x00, 0x02, 0x00, 0x00, 0x00, 0x00, 0x00, 0x08, 0x00,
   0x00, 0x00, 0x00, 0x40, 0x00, 0x00, 0x00, 0x00, 0x00, 0x58, 0x00, 0x00,
   0x00, 0x00, 0x00, 0x5c, 0x00, 0x00, 0x00, 0x00, 0x00, 0x3f, 0x00, 0x00,
   0x00, 0x00, 0x80, 0x9f, 0x20, 0x00, 0x00, 0x00, 0xe0, 0x0f, 0x04, 0x00,
   0x00, 0x00, 0xc0, 0x07, 0x02, 0x00, 0x00, 0x00, 0xc1, 0x01, 0x00, 0x00,
   0x00, 0x00, 0x10, 0x00, 0x00, 0x00, 0x00, 0x88, 0x04, 0x00, 0x00, 0x00,
   0x50, 0x15, 0x00, 0x00, 0x40, 0x08, 0x90, 0x24, 0x09, 0x00, 0x80, 0x12,
   0x28, 0x15, 0x04, 0x00, 0xa0, 0x0a, 0xa0, 0x12, 0x00, 0x00, 0xa0, 0x14,
   0x28, 0x05, 0x7a, 0x00, 0x90, 0x2a, 0x40, 0x0a, 0x7e, 0x00, 0xa0, 0x04,
   0x40, 0x09, 0xfe, 0x00, 0x40, 0x01, 0x80, 0x02, 0xfc, 0x00, 0x80, 0x02,
   0x00, 0x05, 0xfc, 0x00, 0x20, 0x01, 0x00, 0x02, 0xf8, 0x01, 0x40, 0x01,
   0x80, 0x02, 0xf8, 0x03, 0x40, 0x00, 0x80, 0x04, 0xf0, 0x03, 0x80, 0x01,
   0x00, 0x05, 0xf0, 0x07, 0x40, 0x02, 0x40, 0x01, 0xe0, 0x07, 0xa0, 0x00,
   0x80, 0x0a, 0xe0, 0x07, 0x40, 0x05, 0x20, 0x05, 0xc0, 0x0f, 0x20, 0x05,
   0x50, 0x12, 0xec, 0xbf, 0x40, 0x0a, 0x48, 0x05, 0xfe, 0xff, 0xa9, 0x14,
   0x50, 0x2a, 0xfe, 0xff, 0x51, 0x29, 0xa8, 0x14, 0xfe, 0xff, 0x95, 0x0a,
   0xa0, 0x52, 0xfc, 0xff, 0x28, 0x09, 0x00, 0x48, 0x01, 0x00, 0x4a, 0x08,
   0x00, 0x90, 0x00, 0x80, 0x12, 0x00, 0x00, 0x40, 0x0b, 0xa0, 0x04, 0x00,
   0x00, 0x20, 0x54, 0x55, 0x05, 0x00, 0x00, 0xc0, 0x92, 0x2a, 0x01, 0x00,
   0x00, 0x00, 0x55, 0x52, 0x05, 0x00, 0x00, 0x40, 0x52, 0x25, 0x01, 0x00,
   0x00, 0x80, 0x0a, 0x48, 0x05, 0x00, 0x00, 0x40, 0x09, 0x20, 0x01, 0x00,
   0x00, 0x40, 0x02, 0x40, 0x05, 0x00, 0x00, 0x80, 0x02, 0x40, 0x01, 0x00,
   0x00, 0x00, 0x00, 0x00, 0x00, 0x00, 0x00, 0x00, 0x00, 0x00, 0x00, 0x00 };
